<svg id="logo" xmlns="http://www.w3.org/2000/svg" xmlns:xlink="http://www.w3.org/1999/xlink" viewBox="0 0 1839.65 605.73"><defs><style>.cls-1{fill:#9bd7d5;}.cls-2,.cls-4,.cls-9{fill:none;}.cls-2{stroke:#505050;}.cls-10,.cls-11,.cls-2,.cls-4,.cls-6,.cls-9{stroke-miterlimit:10;}.cls-2,.cls-4{stroke-width:3px;}.cls-3,.cls-5{font-size:396.15px;font-family:Vivaldii, Vivaldi;font-style:italic;}.cls-3{fill:#505050;}.cls-4{stroke:#fff5c3;}.cls-5{fill:#fff5c3;}.cls-6{fill:#ffcf5c;}.cls-10,.cls-11,.cls-6,.cls-9{stroke:#a88558;}.cls-7{fill:url(#linear-gradient);}.cls-8{fill:url(#linear-gradient-2);}.cls-10{fill:url(#radial-gradient);}.cls-11{fill:url(#radial-gradient-2);}</style><linearGradient id="linear-gradient" x1="1691.61" y1="1216.6" x2="1715.75" y2="1230.54" gradientTransform="translate(-287.46 665.45) rotate(-45)" gradientUnits="userSpaceOnUse"><stop offset="0.04"/><stop offset="0.84" stop-color="#ffd071"/></linearGradient><linearGradient id="linear-gradient-2" x1="1727.61" y1="328.58" x2="1751.75" y2="342.52" gradientTransform="matrix(1, 0, 0, 1, 0, 0)" xlink:href="#linear-gradient"/><radialGradient id="radial-gradient" cx="1662.42" cy="1301.56" r="10.91" gradientTransform="translate(-152.49 918.43) rotate(-45)" gradientUnits="userSpaceOnUse"><stop offset="0.24" stop-color="#caa55d"/><stop offset="0.67" stop-color="#eabf69"/><stop offset="1" stop-color="#ffd071"/></radialGradient><radialGradient id="radial-gradient-2" cx="1833.38" cy="666.52" r="10.91" gradientTransform="matrix(1, 0, 0, 1, 0, 0)" xlink:href="#radial-gradient"/></defs><title>nguyen_hien_hillier_matt_logo</title><g id="logo-2" data-name="logo"><g id="shadow"><g id="a3"><polygon points="713.52 407.29 683.26 422.35 653.01 437.4 682.93 388.55 712.85 339.71 713.18 373.5 713.52 407.29"/></g><g id="a2"><polygon points="477.48 547.75 495.98 519.47 514.48 491.19 513.34 548.46 512.21 605.73 494.84 576.74 477.48 547.75"/></g><g id="a1"><polygon points="195.93 389.63 196.18 423.42 196.43 457.21 165.67 408.89 134.91 360.57 165.42 375.1 195.93 389.63"/></g><path id="left" d="M288,636.5l-127,80c-40,31-27,101,32,110H575v-46H208c-11-2-21-19-8-30l115-72Z" transform="translate(-134.97 -252.98)"/><path id="top" d="M373.5,642l-27-42L547,474.5c10-5,30-13,56,0l232,145-24,45-227-142c-8.51-5.38-14.27-2.72-20,0Z" transform="translate(-134.97 -252.98)"/><path id="right" d="M645,780.5v46H954c47-2,82-62,38-108l-98-62-27,42,81,51c14.14,12.51,6,29-7,31Z" transform="translate(-134.97 -252.98)"/><path d="M550.5,481h49V416a82.14,82.14,0,0,0,56-78c-.07-7.08-1.19-30.82-19-52-23-27.36-55.73-28.85-61-29a81.08,81.08,0,0,0-82,69c-.76,9.85,5.37,17.86,12,19,7.85,1.35,18.12-6.66,18-19a52.7,52.7,0,0,1,51-39,52.73,52.73,0,0,1,27,8,52.1,52.1,0,0,1,19,21,50.65,50.65,0,0,1,5,22,52.23,52.23,0,0,1-13,35c-13.62,15.25-31.46,16.77-35,17h-11a13.84,13.84,0,0,0-15,15c-.32,3.89-.74,9.79-1,17-.43,11.86-.13,19.16,0,34C550.55,462,550.59,470.54,550.5,481Z" transform="translate(-134.97 -252.98)"/></g><g id="hanger"><g id="arrows"><g id="a3-2" data-name="a3"><polygon class="cls-1" points="710.52 403.29 680.26 418.35 650.01 433.4 679.93 384.55 709.85 335.71 710.18 369.5 710.52 403.29"/></g><g id="a2-2" data-name="a2"><polygon class="cls-1" points="474.48 543.75 492.98 515.47 511.48 487.19 510.34 544.46 509.21 601.73 491.84 572.74 474.48 543.75"/></g><g id="a1-2" data-name="a1"><polygon class="cls-1" points="192.93 385.63 193.18 419.42 193.43 453.21 162.67 404.89 131.91 356.57 162.42 371.1 192.93 385.63"/></g></g><g id="hanger-2" data-name="hanger"><path id="left-2" data-name="left" class="cls-1" d="M285,632.5l-127,80c-40,31-27,101,32,110H572v-46H205c-11-2-21-19-8-30l115-72Z" transform="translate(-134.97 -252.98)"/><path id="top-2" data-name="top" class="cls-1" d="M370.5,638l-27-42L544,470.5c10-5,30-13,56,0l232,145-24,45-227-142c-8.51-5.38-14.27-2.72-20,0Z" transform="translate(-134.97 -252.98)"/><path id="right-2" data-name="right" class="cls-1" d="M642,776.5v46H951c47-2,82-62,38-108l-98-62-27,42,81,51c14.14,12.51,6,29-7,31Z" transform="translate(-134.97 -252.98)"/></g><g id="hook"><path class="cls-1" d="M547.5,477h49V412a82.14,82.14,0,0,0,56-78c-.07-7.08-1.19-30.82-19-52-23-27.36-55.73-28.85-61-29a81.08,81.08,0,0,0-82,69c-.76,9.85,5.37,17.86,12,19,7.85,1.35,18.12-6.66,18-19a52.7,52.7,0,0,1,51-39,52.73,52.73,0,0,1,27,8,52.1,52.1,0,0,1,19,21,50.65,50.65,0,0,1,5,22,52.23,52.23,0,0,1-13,35c-13.62,15.25-31.46,16.77-35,17h-11a13.84,13.84,0,0,0-15,15c-.32,3.89-.74,9.79-1,17-.43,11.86-.13,19.16,0,34C547.55,458,547.59,466.54,547.5,477Z" transform="translate(-134.97 -252.98)"/></g></g></g><g id="name"><g id="shadow-2" data-name="shadow"><g id="line"><line class="cls-2" x1="1250.88" y1="477.2" x2="1611.43" y2="477.2"/></g><text class="cls-3" transform="translate(801.53 427.48)">Thrift</text></g><g id="line-2" data-name="line"><line class="cls-4" x1="1237.88" y1="473.2" x2="1598.43" y2="473.2"/></g><text class="cls-5" transform="translate(797.53 422.48)">Thrift</text><g id="X_pin" data-name="X pin"><path id="right_pin" data-name="right pin" class="cls-6" d="M1833.7,426l6.85,41.08,91.28,237.33c0,.16.6,3,2.28,3.43s4.36-1.42,5.14-5.14c1-6.56,1.85-13.82,2.28-21.68a217.16,217.16,0,0,0,0-24l-5.13-16.54-55.34-140.92,8-1.14,62.76,154,20.54,34.23L1878.2,450l-23.39-33.66a29,29,0,0,0,0-25.1A29.81,29.81,0,0,0,1843.4,381a21,21,0,0,0-7.41-2.28,20.55,20.55,0,0,0-7.42.57,22.68,22.68,0,0,0-7.42,6.27,28.44,28.44,0,0,0-2.85,26.25A28.41,28.41,0,0,0,1833.7,426Z" transform="translate(-134.97 -252.98)"/><g id="shadows"><polygon id="behind" class="cls-7" points="1807.13 404.12 1748.16 251.92 1752.7 245.71 1754.65 245.52 1816.26 398.41 1807.13 407.54 1807.13 404.12"/><polygon id="front" class="cls-8" points="1701.89 408.29 1767.8 258.97 1775.41 257.79 1776.92 259.03 1712.38 410.71 1699.46 410.71 1701.89 408.29"/></g><path id="left_pin" data-name="left pin" class="cls-6" d="M1923.59,421.24l-24.21,33.89L1796.11,687.5c-.09.13-1.68,2.51-.81,4s4.08,2.08,7.26,0c5.37-3.92,11.08-8.46,17-13.71a219.67,219.67,0,0,0,16.94-17l8.07-15.33L1905,506.77l6.46,4.84-64.55,153.3-9.68,38.72q50.41-117,100.85-234l7.26-40.34a28.95,28.95,0,0,0,17.75-17.75,29.89,29.89,0,0,0-.8-15.33,21.34,21.34,0,0,0-3.63-6.86,20.53,20.53,0,0,0-5.65-4.84,22.82,22.82,0,0,0-9.68-.81,28.45,28.45,0,0,0-20.58,16.54,28.53,28.53,0,0,0,.81,21Z" transform="translate(-134.97 -252.98)"/><g id="divide"><path id="right_pin-2" data-name="right pin" class="cls-9" d="M1833.13,426a21.64,21.64,0,0,1,10.84-9.7,21.36,21.36,0,0,1,11.41-1.14" transform="translate(-134.97 -252.98)"/><path id="left_pin-2" data-name="left pin" class="cls-9" d="M1923.18,420.84a21.59,21.59,0,0,1,14.53.81,21.1,21.1,0,0,1,8.87,7.26" transform="translate(-134.97 -252.98)"/></g><g id="inside"><path class="cls-10" d="M1942.1,660.52v13.7l21.11,22.25a23.91,23.91,0,0,0,5.71,3.42c1.84.77,2.42.73,2.85.57,1.84-.68,2.13-4,2.28-5.71a18.09,18.09,0,0,0-1.14-8l-21.68-35.37" transform="translate(-134.97 -252.98)"/><path class="cls-11" d="M1834.43,663.7l-9.68,9.68-.81,30.66a23.51,23.51,0,0,0,1.62,6.45c.75,1.85,1.2,2.23,1.61,2.42,1.78.82,4.32-1.31,5.65-2.42a18.28,18.28,0,0,0,4.84-6.45q4.85-20.17,9.68-40.34" transform="translate(-134.97 -252.98)"/></g></g></g></svg>